# 3ds Max Wavefront OBJ Exporter v0.97b - (c)2007 guruware
# File Created: 06.09.2014 16:59:27

#
# object Plane001
#

v  0.5000 0.0000 0.5000
v  0.5000 0.0625 0.5000
v  0.4375 0.0625 0.5000
v  -0.4375 0.0625 0.5000
v  -0.5000 0.0000 0.5000
v  -0.5000 0.0625 0.5000
v  -0.4375 0.9375 0.5000
v  -0.5000 0.9375 0.5000
v  0.4375 0.0625 0.4375
v  0.4375 0.1250 0.4375
v  0.3750 0.1250 0.4375
v  -0.3750 0.1250 0.4375
v  -0.4375 0.0625 0.4375
v  -0.4375 0.1250 0.4375
v  0.5000 0.9375 0.5000
v  0.4375 0.9375 0.5000
v  -0.3750 0.8750 0.4375
v  -0.4375 0.8750 0.4375
v  -0.3750 0.1250 0.5000
v  0.3750 0.1250 0.5000
v  0.3750 0.8750 0.5000
v  -0.3750 0.8750 0.5000
v  0.4375 0.8750 0.4375
v  0.3750 0.8750 0.4375
v  0.4375 0.9375 0.4375
v  -0.4375 0.9375 0.4375
v  -0.5000 1.0000 0.5000
v  0.5000 1.0000 0.5000
# 28 vertices

vn 0.0000 -0.0000 1.0000
vn 0.0000 1.0000 0.0000
vn -1.0000 0.0000 -0.0000
vn 0.0000 -1.0000 -0.0000
vn 1.0000 0.0000 -0.0000
# 5 vertex normals

vt 1.0000 0.0000 0.0000
vt 1.0000 0.0625 0.0000
vt 0.9375 0.0625 0.0000
vt 0.0625 0.0625 0.0000
vt 0.0000 0.0000 0.0000
vt 0.0000 0.0625 0.0000
vt 0.0625 0.9375 0.0000
vt 0.0000 0.9375 0.0000
vt 0.9375 0.1250 0.0000
vt 0.8750 0.1250 0.0000
vt 0.1250 0.1250 0.0000
vt 0.0625 0.1250 0.0000
vt 1.0000 0.9375 0.0000
vt 0.9375 0.9375 0.0000
vt 0.1250 0.8750 0.0000
vt 0.0625 0.8750 0.0000
vt 0.8750 0.8750 0.0000
vt 0.9375 0.8750 0.0000
vt 0.0000 1.0000 0.0000
vt 1.0000 1.0000 0.0000
# 20 texture coords

g Plane001
s 1
f 1/1/1 2/2/1 3/3/1 4/4/1 
f 5/5/1 1/1/1 4/4/1 6/6/1 
f 6/6/1 4/4/1 7/7/1 8/8/1 
f 9/3/1 10/9/1 11/10/1 12/11/1 
f 13/4/1 9/3/1 12/11/1 14/12/1 
f 3/3/1 2/2/1 15/13/1 16/14/1 
f 14/12/1 12/11/1 17/15/1 18/16/1 
f 19/11/1 20/10/1 21/17/1 22/15/1 
f 11/10/1 10/9/1 23/18/1 24/17/1 
f 24/17/1 23/18/1 25/14/1 17/15/1 
f 18/16/1 17/15/1 25/14/1 26/7/1 
f 27/19/1 8/8/1 7/7/1 16/14/1 
f 16/14/1 15/13/1 28/20/1 27/19/1 
s off
f 4/4/2 3/3/2 9/3/2 13/4/2 
f 16/14/3 25/14/3 23/18/3 10/9/3 
f 3/3/3 16/14/3 10/9/3 9/3/3 
f 16/14/4 7/7/4 26/7/4 25/14/4 
f 7/7/5 4/4/5 13/4/5 14/12/5 
f 7/7/5 14/12/5 18/16/5 26/7/5 
f 20/10/4 19/11/4 12/11/4 11/10/4 
f 19/11/3 22/15/3 17/15/3 12/11/3 
f 22/15/2 21/17/2 24/17/2 17/15/2 
f 21/17/5 20/10/5 11/10/5 24/17/5 
# 23 polygons

#
# object Plane002
#

v  0.5000 1.0000 -0.5000
v  0.4375 1.0000 -0.5000
v  0.4375 1.0000 -0.4375
v  0.4375 1.0000 0.4375
v  0.5000 1.0000 0.5000
v  0.4375 1.0000 0.5000
v  -0.4375 1.0000 0.4375
v  -0.4375 1.0000 0.5000
v  0.4375 0.9375 -0.4375
v  0.3750 0.9375 -0.4375
v  0.3750 0.9375 -0.3750
v  0.3750 0.9375 0.3750
v  0.4375 0.9375 0.4375
v  0.3750 0.9375 0.4375
v  -0.4375 1.0000 -0.5000
v  -0.4375 1.0000 -0.4375
v  -0.3750 0.9375 0.3750
v  -0.3750 0.9375 0.4375
v  0.3750 1.0000 0.3750
v  0.3750 1.0000 -0.3750
v  -0.3750 1.0000 -0.3750
v  -0.3750 1.0000 0.3750
v  -0.3750 0.9375 -0.4375
v  -0.3750 0.9375 -0.3750
v  -0.4375 0.9375 -0.4375
v  -0.4375 0.9375 0.4375
v  -0.5000 1.0000 0.5000
v  -0.5000 1.0000 -0.5000
# 28 vertices

vn 0.0000 1.0000 -0.0000
vn -1.0000 0.0000 0.0000
vn 0.0000 0.0000 1.0000
vn 1.0000 0.0000 -0.0000
vn -0.0000 0.0000 -1.0000
# 5 vertex normals

vt 1.0000 0.0000 0.0000
vt 1.0000 0.0625 0.0000
vt 0.9375 0.0625 0.0000
vt 0.0625 0.0625 0.0000
vt 0.0000 0.0000 0.0000
vt 0.0000 0.0625 0.0000
vt 0.0625 0.9375 0.0000
vt 0.0000 0.9375 0.0000
vt 0.9375 0.1250 0.0000
vt 0.8750 0.1250 0.0000
vt 0.1250 0.1250 0.0000
vt 0.0625 0.1250 0.0000
vt 1.0000 0.9375 0.0000
vt 0.9375 0.9375 0.0000
vt 0.1250 0.8750 0.0000
vt 0.0625 0.8750 0.0000
vt 0.8750 0.8750 0.0000
vt 0.9375 0.8750 0.0000
vt 0.0000 1.0000 0.0000
vt 1.0000 1.0000 0.0000
# 20 texture coords

g Plane002
s 1
f 29/21/6 30/22/6 31/23/6 32/24/6 
f 33/25/6 29/21/6 32/24/6 34/26/6 
f 34/26/6 32/24/6 35/27/6 36/28/6 
f 37/23/6 38/29/6 39/30/6 40/31/6 
f 41/24/6 37/23/6 40/31/6 42/32/6 
f 31/23/6 30/22/6 43/33/6 44/34/6 
f 42/32/6 40/31/6 45/35/6 46/36/6 
f 47/31/6 48/30/6 49/37/6 50/35/6 
f 39/30/6 38/29/6 51/38/6 52/37/6 
f 52/37/6 51/38/6 53/34/6 45/35/6 
f 46/36/6 45/35/6 53/34/6 54/27/6 
f 55/39/6 36/28/6 35/27/6 44/34/6 
f 44/34/6 43/33/6 56/40/6 55/39/6 
s off
f 32/24/7 31/23/7 37/23/7 41/24/7 
f 44/34/8 53/34/8 51/38/8 38/29/8 
f 31/23/8 44/34/8 38/29/8 37/23/8 
f 44/34/9 35/27/9 54/27/9 53/34/9 
f 35/27/10 32/24/10 41/24/10 42/32/10 
f 35/27/10 42/32/10 46/36/10 54/27/10 
f 48/30/9 47/31/9 40/31/9 39/30/9 
f 47/31/8 50/35/8 45/35/8 40/31/8 
f 50/35/7 49/37/7 52/37/7 45/35/7 
f 49/37/10 48/30/10 39/30/10 52/37/10 
# 23 polygons

#
# object Plane003
#

v  0.5000 0.0000 -0.5000
v  0.5000 0.0625 -0.5000
v  0.5000 0.0625 -0.4375
v  0.5000 0.0625 0.4375
v  0.5000 0.0000 0.5000
v  0.5000 0.0625 0.5000
v  0.5000 0.9375 0.4375
v  0.5000 0.9375 0.5000
v  0.4375 0.0625 -0.4375
v  0.4375 0.1250 -0.4375
v  0.4375 0.1250 -0.3750
v  0.4375 0.1250 0.3750
v  0.4375 0.0625 0.4375
v  0.4375 0.1250 0.4375
v  0.5000 0.9375 -0.5000
v  0.5000 0.9375 -0.4375
v  0.4375 0.8750 0.3750
v  0.4375 0.8750 0.4375
v  0.5000 0.1250 0.3750
v  0.5000 0.1250 -0.3750
v  0.5000 0.8750 -0.3750
v  0.5000 0.8750 0.3750
v  0.4375 0.8750 -0.4375
v  0.4375 0.8750 -0.3750
v  0.4375 0.9375 -0.4375
v  0.4375 0.9375 0.4375
v  0.5000 1.0000 0.5000
v  0.5000 1.0000 -0.5000
# 28 vertices

vn 1.0000 -0.0000 -0.0000
vn 0.0000 1.0000 -0.0000
vn 0.0000 0.0000 1.0000
vn -0.0000 -1.0000 0.0000
vn -0.0000 0.0000 -1.0000
# 5 vertex normals

vt 1.0000 0.0000 0.0000
vt 1.0000 0.0625 0.0000
vt 0.9375 0.0625 0.0000
vt 0.0625 0.0625 0.0000
vt 0.0000 0.0000 0.0000
vt 0.0000 0.0625 0.0000
vt 0.0625 0.9375 0.0000
vt 0.0000 0.9375 0.0000
vt 0.9375 0.1250 0.0000
vt 0.8750 0.1250 0.0000
vt 0.1250 0.1250 0.0000
vt 0.0625 0.1250 0.0000
vt 1.0000 0.9375 0.0000
vt 0.9375 0.9375 0.0000
vt 0.1250 0.8750 0.0000
vt 0.0625 0.8750 0.0000
vt 0.8750 0.8750 0.0000
vt 0.9375 0.8750 0.0000
vt 0.0000 1.0000 0.0000
vt 1.0000 1.0000 0.0000
# 20 texture coords

g Plane003
s 1
f 57/41/11 58/42/11 59/43/11 60/44/11 
f 61/45/11 57/41/11 60/44/11 62/46/11 
f 62/46/11 60/44/11 63/47/11 64/48/11 
f 65/43/11 66/49/11 67/50/11 68/51/11 
f 69/44/11 65/43/11 68/51/11 70/52/11 
f 59/43/11 58/42/11 71/53/11 72/54/11 
f 70/52/11 68/51/11 73/55/11 74/56/11 
f 75/51/11 76/50/11 77/57/11 78/55/11 
f 67/50/11 66/49/11 79/58/11 80/57/11 
f 80/57/11 79/58/11 81/54/11 73/55/11 
f 74/56/11 73/55/11 81/54/11 82/47/11 
f 83/59/11 64/48/11 63/47/11 72/54/11 
f 72/54/11 71/53/11 84/60/11 83/59/11 
s off
f 60/44/12 59/43/12 65/43/12 69/44/12 
f 72/54/13 81/54/13 79/58/13 66/49/13 
f 59/43/13 72/54/13 66/49/13 65/43/13 
f 72/54/14 63/47/14 82/47/14 81/54/14 
f 63/47/15 60/44/15 69/44/15 70/52/15 
f 63/47/15 70/52/15 74/56/15 82/47/15 
f 76/50/14 75/51/14 68/51/14 67/50/14 
f 75/51/13 78/55/13 73/55/13 68/51/13 
f 78/55/12 77/57/12 80/57/12 73/55/12 
f 77/57/15 76/50/15 67/50/15 80/57/15 
# 23 polygons

#
# object Plane004
#

v  -0.5000 0.0000 0.5000
v  -0.5000 0.0625 0.5000
v  -0.5000 0.0625 0.4375
v  -0.5000 0.0625 -0.4375
v  -0.5000 0.0000 -0.5000
v  -0.5000 0.0625 -0.5000
v  -0.5000 0.9375 -0.4375
v  -0.5000 0.9375 -0.5000
v  -0.4375 0.0625 0.4375
v  -0.4375 0.1250 0.4375
v  -0.4375 0.1250 0.3750
v  -0.4375 0.1250 -0.3750
v  -0.4375 0.0625 -0.4375
v  -0.4375 0.1250 -0.4375
v  -0.5000 0.9375 0.5000
v  -0.5000 0.9375 0.4375
v  -0.4375 0.8750 -0.3750
v  -0.4375 0.8750 -0.4375
v  -0.5000 0.1250 -0.3750
v  -0.5000 0.1250 0.3750
v  -0.5000 0.8750 0.3750
v  -0.5000 0.8750 -0.3750
v  -0.4375 0.8750 0.4375
v  -0.4375 0.8750 0.3750
v  -0.4375 0.9375 0.4375
v  -0.4375 0.9375 -0.4375
v  -0.5000 1.0000 -0.5000
v  -0.5000 1.0000 0.5000
# 28 vertices

vn -1.0000 -0.0000 0.0000
vn -0.0000 1.0000 0.0000
vn -0.0000 0.0000 -1.0000
vn 0.0000 -1.0000 -0.0000
vn 0.0000 0.0000 1.0000
# 5 vertex normals

vt 1.0000 0.0000 0.0000
vt 1.0000 0.0625 0.0000
vt 0.9375 0.0625 0.0000
vt 0.0625 0.0625 0.0000
vt 0.0000 0.0000 0.0000
vt 0.0000 0.0625 0.0000
vt 0.0625 0.9375 0.0000
vt 0.0000 0.9375 0.0000
vt 0.9375 0.1250 0.0000
vt 0.8750 0.1250 0.0000
vt 0.1250 0.1250 0.0000
vt 0.0625 0.1250 0.0000
vt 1.0000 0.9375 0.0000
vt 0.9375 0.9375 0.0000
vt 0.1250 0.8750 0.0000
vt 0.0625 0.8750 0.0000
vt 0.8750 0.8750 0.0000
vt 0.9375 0.8750 0.0000
vt 0.0000 1.0000 0.0000
vt 1.0000 1.0000 0.0000
# 20 texture coords

g Plane004
s 1
f 85/61/16 86/62/16 87/63/16 88/64/16 
f 89/65/16 85/61/16 88/64/16 90/66/16 
f 90/66/16 88/64/16 91/67/16 92/68/16 
f 93/63/16 94/69/16 95/70/16 96/71/16 
f 97/64/16 93/63/16 96/71/16 98/72/16 
f 87/63/16 86/62/16 99/73/16 100/74/16 
f 98/72/16 96/71/16 101/75/16 102/76/16 
f 103/71/16 104/70/16 105/77/16 106/75/16 
f 95/70/16 94/69/16 107/78/16 108/77/16 
f 108/77/16 107/78/16 109/74/16 101/75/16 
f 102/76/16 101/75/16 109/74/16 110/67/16 
f 111/79/16 92/68/16 91/67/16 100/74/16 
f 100/74/16 99/73/16 112/80/16 111/79/16 
s off
f 88/64/17 87/63/17 93/63/17 97/64/17 
f 100/74/18 109/74/18 107/78/18 94/69/18 
f 87/63/18 100/74/18 94/69/18 93/63/18 
f 100/74/19 91/67/19 110/67/19 109/74/19 
f 91/67/20 88/64/20 97/64/20 98/72/20 
f 91/67/20 98/72/20 102/76/20 110/67/20 
f 104/70/19 103/71/19 96/71/19 95/70/19 
f 103/71/18 106/75/18 101/75/18 96/71/18 
f 106/75/17 105/77/17 108/77/17 101/75/17 
f 105/77/20 104/70/20 95/70/20 108/77/20 
# 23 polygons

#
# object Plane005
#

v  0.5000 1.0000 -0.5000
v  0.5000 0.9375 -0.5000
v  0.4375 0.9375 -0.5000
v  -0.4375 0.9375 -0.5000
v  -0.5000 1.0000 -0.5000
v  -0.5000 0.9375 -0.5000
v  -0.4375 0.0625 -0.5000
v  -0.5000 0.0625 -0.5000
v  0.4375 0.9375 -0.4375
v  0.4375 0.8750 -0.4375
v  0.3750 0.8750 -0.4375
v  -0.3750 0.8750 -0.4375
v  -0.4375 0.9375 -0.4375
v  -0.4375 0.8750 -0.4375
v  0.5000 0.0625 -0.5000
v  0.4375 0.0625 -0.5000
v  -0.3750 0.1250 -0.4375
v  -0.4375 0.1250 -0.4375
v  -0.3750 0.8750 -0.5000
v  0.3750 0.8750 -0.5000
v  0.3750 0.1250 -0.5000
v  -0.3750 0.1250 -0.5000
v  0.4375 0.1250 -0.4375
v  0.3750 0.1250 -0.4375
v  0.4375 0.0625 -0.4375
v  -0.4375 0.0625 -0.4375
v  -0.5000 0.0000 -0.5000
v  0.5000 0.0000 -0.5000
# 28 vertices

vn 0.0000 -0.0000 -1.0000
vn 0.0000 -1.0000 0.0000
vn -1.0000 0.0000 -0.0000
vn 0.0000 1.0000 -0.0000
vn 1.0000 0.0000 -0.0000
# 5 vertex normals

vt 1.0000 0.0000 0.0000
vt 1.0000 0.0625 0.0000
vt 0.9375 0.0625 0.0000
vt 0.0625 0.0625 0.0000
vt 0.0000 0.0000 0.0000
vt 0.0000 0.0625 0.0000
vt 0.0625 0.9375 0.0000
vt 0.0000 0.9375 0.0000
vt 0.9375 0.1250 0.0000
vt 0.8750 0.1250 0.0000
vt 0.1250 0.1250 0.0000
vt 0.0625 0.1250 0.0000
vt 1.0000 0.9375 0.0000
vt 0.9375 0.9375 0.0000
vt 0.1250 0.8750 0.0000
vt 0.0625 0.8750 0.0000
vt 0.8750 0.8750 0.0000
vt 0.9375 0.8750 0.0000
vt 0.0000 1.0000 0.0000
vt 1.0000 1.0000 0.0000
# 20 texture coords

g Plane005
s 1
f 113/81/21 114/82/21 115/83/21 116/84/21 
f 117/85/21 113/81/21 116/84/21 118/86/21 
f 118/86/21 116/84/21 119/87/21 120/88/21 
f 121/83/21 122/89/21 123/90/21 124/91/21 
f 125/84/21 121/83/21 124/91/21 126/92/21 
f 115/83/21 114/82/21 127/93/21 128/94/21 
f 126/92/21 124/91/21 129/95/21 130/96/21 
f 131/91/21 132/90/21 133/97/21 134/95/21 
f 123/90/21 122/89/21 135/98/21 136/97/21 
f 136/97/21 135/98/21 137/94/21 129/95/21 
f 130/96/21 129/95/21 137/94/21 138/87/21 
f 139/99/21 120/88/21 119/87/21 128/94/21 
f 128/94/21 127/93/21 140/100/21 139/99/21 
s off
f 116/84/22 115/83/22 121/83/22 125/84/22 
f 128/94/23 137/94/23 135/98/23 122/89/23 
f 115/83/23 128/94/23 122/89/23 121/83/23 
f 128/94/24 119/87/24 138/87/24 137/94/24 
f 119/87/25 116/84/25 125/84/25 126/92/25 
f 119/87/25 126/92/25 130/96/25 138/87/25 
f 132/90/24 131/91/24 124/91/24 123/90/24 
f 131/91/23 134/95/23 129/95/23 124/91/23 
f 134/95/22 133/97/22 136/97/22 129/95/22 
f 133/97/25 132/90/25 123/90/25 136/97/25 
# 23 polygons

#
# object Plane006
#

v  0.5000 0.0000 0.5000
v  0.4375 0.0000 0.5000
v  0.4375 0.0000 0.4375
v  0.4375 0.0000 -0.4375
v  0.5000 0.0000 -0.5000
v  0.4375 0.0000 -0.5000
v  -0.4375 -0.0000 -0.4375
v  -0.4375 -0.0000 -0.5000
v  0.4375 0.0625 0.4375
v  0.3750 0.0625 0.4375
v  0.3750 0.0625 0.3750
v  0.3750 0.0625 -0.3750
v  0.4375 0.0625 -0.4375
v  0.3750 0.0625 -0.4375
v  -0.4375 -0.0000 0.5000
v  -0.4375 -0.0000 0.4375
v  -0.3750 0.0625 -0.3750
v  -0.3750 0.0625 -0.4375
v  0.3750 0.0000 -0.3750
v  0.3750 0.0000 0.3750
v  -0.3750 -0.0000 0.3750
v  -0.3750 -0.0000 -0.3750
v  -0.3750 0.0625 0.4375
v  -0.3750 0.0625 0.3750
v  -0.4375 0.0625 0.4375
v  -0.4375 0.0625 -0.4375
v  -0.5000 -0.0000 -0.5000
v  -0.5000 -0.0000 0.5000
# 28 vertices

vn 0.0000 -1.0000 0.0000
vn -1.0000 -0.0000 -0.0000
vn 0.0000 0.0000 -1.0000
vn 1.0000 0.0000 0.0000
vn -0.0000 0.0000 1.0000
# 5 vertex normals

vt 1.0000 0.0000 0.0000
vt 1.0000 0.0625 0.0000
vt 0.9375 0.0625 0.0000
vt 0.0625 0.0625 0.0000
vt 0.0000 0.0000 0.0000
vt 0.0000 0.0625 0.0000
vt 0.0625 0.9375 0.0000
vt 0.0000 0.9375 0.0000
vt 0.9375 0.1250 0.0000
vt 0.8750 0.1250 0.0000
vt 0.1250 0.1250 0.0000
vt 0.0625 0.1250 0.0000
vt 1.0000 0.9375 0.0000
vt 0.9375 0.9375 0.0000
vt 0.1250 0.8750 0.0000
vt 0.0625 0.8750 0.0000
vt 0.8750 0.8750 0.0000
vt 0.9375 0.8750 0.0000
vt 0.0000 1.0000 0.0000
vt 1.0000 1.0000 0.0000
# 20 texture coords

g Plane006
s 1
f 141/101/26 142/102/26 143/103/26 144/104/26 
f 145/105/26 141/101/26 144/104/26 146/106/26 
f 146/106/26 144/104/26 147/107/26 148/108/26 
f 149/103/26 150/109/26 151/110/26 152/111/26 
f 153/104/26 149/103/26 152/111/26 154/112/26 
f 143/103/26 142/102/26 155/113/26 156/114/26 
f 154/112/26 152/111/26 157/115/26 158/116/26 
f 159/111/26 160/110/26 161/117/26 162/115/26 
f 151/110/26 150/109/26 163/118/26 164/117/26 
f 164/117/26 163/118/26 165/114/26 157/115/26 
f 158/116/26 157/115/26 165/114/26 166/107/26 
f 167/119/26 148/108/26 147/107/26 156/114/26 
f 156/114/26 155/113/26 168/120/26 167/119/26 
s off
f 144/104/27 143/103/27 149/103/27 153/104/27 
f 156/114/28 165/114/28 163/118/28 150/109/28 
f 143/103/28 156/114/28 150/109/28 149/103/28 
f 156/114/29 147/107/29 166/107/29 165/114/29 
f 147/107/30 144/104/30 153/104/30 154/112/30 
f 147/107/30 154/112/30 158/116/30 166/107/30 
f 160/110/29 159/111/29 152/111/29 151/110/29 
f 159/111/28 162/115/28 157/115/28 152/111/28 
f 162/115/27 161/117/27 164/117/27 157/115/27 
f 161/117/30 160/110/30 151/110/30 164/117/30 
# 23 polygons

